<svg width="192" height="80" viewBox="0 0 192 80" fill="none" xmlns="http://www.w3.org/2000/svg">
<rect width="192" height="80" fill="white"/>
<g filter="url(#filter0_d_303_48)">
<path d="M30.768 57C30 57 29.328 56.776 28.752 56.328C28.176 55.848 27.888 55.256 27.888 54.552V25.848C27.888 25.144 28.128 24.568 28.608 24.12C29.088 23.64 29.664 23.4 30.336 23.4H43.872C45.6 23.4 47.184 23.832 48.624 24.696C50.064 25.528 51.216 26.696 52.08 28.2C52.976 29.672 53.424 31.368 53.424 33.288C53.424 34.568 53.168 35.8 52.656 36.984C52.144 38.136 51.456 39.16 50.592 40.056C49.728 40.952 48.752 41.624 47.664 42.072L47.136 41.16C48.128 41.512 48.992 42.024 49.728 42.696C50.464 43.336 51.04 44.104 51.456 45C51.904 45.864 52.144 46.856 52.176 47.976C52.272 48.968 52.352 49.8 52.416 50.472C52.512 51.112 52.64 51.64 52.8 52.056C52.96 52.472 53.248 52.792 53.664 53.016C54.24 53.336 54.592 53.816 54.72 54.456C54.88 55.096 54.752 55.672 54.336 56.184C54.048 56.568 53.68 56.824 53.232 56.952C52.816 57.048 52.384 57.064 51.936 57C51.488 56.904 51.104 56.776 50.784 56.616C50.272 56.296 49.744 55.848 49.2 55.272C48.688 54.664 48.272 53.832 47.952 52.776C47.632 51.72 47.472 50.328 47.472 48.6C47.472 47.8 47.344 47.112 47.088 46.536C46.832 45.96 46.48 45.496 46.032 45.144C45.584 44.76 45.056 44.488 44.448 44.328C43.84 44.136 43.168 44.04 42.432 44.04H32.256L32.928 43.08V54.552C32.928 55.256 32.736 55.848 32.352 56.328C31.968 56.776 31.44 57 30.768 57ZM32.304 39.864H43.776C44.512 39.832 45.216 39.544 45.888 39C46.592 38.424 47.152 37.656 47.568 36.696C48.016 35.736 48.24 34.648 48.24 33.432C48.24 31.896 47.776 30.616 46.848 29.592C45.952 28.536 44.88 28.008 43.632 28.008H32.4L32.928 26.76V40.872L32.304 39.864ZM71.5575 57.48C68.9015 57.48 66.5975 56.936 64.6455 55.848C62.6935 54.728 61.1735 53.208 60.0855 51.288C59.0295 49.336 58.5015 47.112 58.5015 44.616C58.5015 41.8 59.0615 39.4 60.1815 37.416C61.3335 35.4 62.8215 33.864 64.6455 32.808C66.4695 31.72 68.4055 31.176 70.4535 31.176C72.0215 31.176 73.5095 31.496 74.9175 32.136C76.3255 32.744 77.5735 33.608 78.6615 34.728C79.7815 35.816 80.6615 37.112 81.3015 38.616C81.9415 40.088 82.2775 41.704 82.3095 43.464C82.2775 44.104 82.0215 44.632 81.5415 45.048C81.0615 45.464 80.5015 45.672 79.8615 45.672H61.1895L60.0375 41.592H78.0855L77.1735 42.456V41.256C77.1095 40.136 76.7415 39.16 76.0695 38.328C75.3975 37.464 74.5655 36.808 73.5735 36.36C72.5815 35.88 71.5415 35.64 70.4535 35.64C69.4935 35.64 68.5655 35.8 67.6695 36.12C66.8055 36.408 66.0215 36.888 65.3175 37.56C64.6455 38.232 64.1015 39.128 63.6855 40.248C63.3015 41.336 63.1095 42.696 63.1095 44.328C63.1095 46.088 63.4775 47.624 64.2135 48.936C64.9495 50.248 65.9415 51.272 67.1895 52.008C68.4375 52.712 69.8135 53.064 71.3175 53.064C72.5015 53.064 73.4775 52.952 74.2455 52.728C75.0135 52.472 75.6535 52.168 76.1655 51.816C76.6775 51.464 77.1255 51.128 77.5095 50.808C77.9895 50.52 78.4695 50.376 78.9495 50.376C79.5255 50.376 80.0055 50.584 80.3895 51C80.7735 51.384 80.9655 51.848 80.9655 52.392C80.9655 53.096 80.6135 53.736 79.9095 54.312C79.0455 55.144 77.8455 55.88 76.3095 56.52C74.8055 57.16 73.2215 57.48 71.5575 57.48ZM86.247 53.064C85.959 52.616 85.831 52.104 85.863 51.528C85.895 50.92 86.231 50.408 86.871 49.992C87.319 49.704 87.783 49.592 88.263 49.656C88.775 49.688 89.255 49.928 89.703 50.376C90.599 51.368 91.591 52.152 92.679 52.728C93.799 53.304 95.143 53.592 96.711 53.592C97.351 53.56 98.007 53.464 98.679 53.304C99.351 53.112 99.927 52.792 100.407 52.344C100.887 51.864 101.127 51.176 101.127 50.28C101.127 49.48 100.871 48.84 100.359 48.36C99.847 47.88 99.175 47.496 98.343 47.208C97.511 46.888 96.615 46.6 95.655 46.344C94.631 46.056 93.591 45.736 92.535 45.384C91.511 45.032 90.583 44.584 89.751 44.04C88.919 43.464 88.231 42.728 87.687 41.832C87.175 40.936 86.919 39.832 86.919 38.52C86.919 37.016 87.335 35.72 88.167 34.632C89.031 33.544 90.135 32.696 91.479 32.088C92.855 31.48 94.343 31.176 95.943 31.176C96.871 31.176 97.847 31.304 98.871 31.56C99.895 31.784 100.887 32.152 101.847 32.664C102.807 33.176 103.639 33.848 104.343 34.68C104.663 35.096 104.839 35.592 104.871 36.168C104.935 36.744 104.679 37.256 104.103 37.704C103.719 38.024 103.255 38.168 102.711 38.136C102.167 38.104 101.719 37.928 101.367 37.608C100.759 36.84 99.975 36.248 99.015 35.832C98.055 35.384 96.967 35.16 95.751 35.16C95.143 35.16 94.503 35.256 93.831 35.448C93.191 35.608 92.647 35.912 92.199 36.36C91.751 36.808 91.527 37.464 91.527 38.328C91.527 39.128 91.783 39.768 92.295 40.248C92.839 40.728 93.543 41.128 94.407 41.448C95.271 41.768 96.215 42.056 97.239 42.312C98.231 42.568 99.207 42.872 100.167 43.224C101.159 43.576 102.039 44.04 102.807 44.616C103.607 45.16 104.247 45.88 104.727 46.776C105.239 47.64 105.495 48.744 105.495 50.088C105.495 51.656 105.031 53 104.103 54.12C103.207 55.208 102.055 56.04 100.647 56.616C99.271 57.192 97.815 57.48 96.279 57.48C94.455 57.48 92.631 57.16 90.807 56.52C89.015 55.848 87.495 54.696 86.247 53.064ZM110.321 32.04H121.601C122.241 32.04 122.769 32.264 123.185 32.712C123.633 33.128 123.857 33.656 123.857 34.296C123.857 34.904 123.633 35.416 123.185 35.832C122.769 36.248 122.241 36.456 121.601 36.456H110.321C109.681 36.456 109.137 36.248 108.689 35.832C108.273 35.384 108.065 34.856 108.065 34.248C108.065 33.608 108.273 33.08 108.689 32.664C109.137 32.248 109.681 32.04 110.321 32.04ZM115.361 25.8C116.065 25.8 116.641 26.04 117.089 26.52C117.537 26.968 117.761 27.544 117.761 28.248V50.52C117.761 51.096 117.857 51.56 118.049 51.912C118.241 52.264 118.497 52.504 118.817 52.632C119.169 52.76 119.521 52.824 119.873 52.824C120.225 52.824 120.529 52.76 120.785 52.632C121.073 52.504 121.409 52.44 121.793 52.44C122.177 52.44 122.529 52.616 122.849 52.968C123.169 53.32 123.329 53.8 123.329 54.408C123.329 55.176 122.913 55.8 122.081 56.28C121.249 56.76 120.353 57 119.393 57C118.849 57 118.209 56.952 117.473 56.856C116.737 56.76 116.017 56.52 115.313 56.136C114.641 55.752 114.081 55.144 113.633 54.312C113.185 53.448 112.961 52.248 112.961 50.712V28.248C112.961 27.544 113.185 26.968 113.633 26.52C114.113 26.04 114.689 25.8 115.361 25.8Z" fill="black"/>
</g>
<path d="M150 50.9792L158.646 56.2084C160.229 57.1667 162.167 55.75 161.75 53.9584L159.458 44.125L167.104 37.5C168.5 36.2917 167.75 34 165.917 33.8542L155.854 33L151.917 23.7084C151.208 22.0209 148.792 22.0209 148.083 23.7084L144.146 32.9792L134.083 33.8334C132.25 33.9792 131.5 36.2709 132.896 37.4792L140.542 44.1042L138.25 53.9375C137.833 55.7292 139.771 57.1459 141.354 56.1875L150 50.9792Z" fill="#F64363"/>
<defs>
<filter id="filter0_d_303_48" x="23.8879" y="23.4" width="103.969" height="42.08" filterUnits="userSpaceOnUse" color-interpolation-filters="sRGB">
<feFlood flood-opacity="0" result="BackgroundImageFix"/>
<feColorMatrix in="SourceAlpha" type="matrix" values="0 0 0 0 0 0 0 0 0 0 0 0 0 0 0 0 0 0 127 0" result="hardAlpha"/>
<feOffset dy="4"/>
<feGaussianBlur stdDeviation="2"/>
<feComposite in2="hardAlpha" operator="out"/>
<feColorMatrix type="matrix" values="0 0 0 0 0 0 0 0 0 0 0 0 0 0 0 0 0 0 0.25 0"/>
<feBlend mode="normal" in2="BackgroundImageFix" result="effect1_dropShadow_303_48"/>
<feBlend mode="normal" in="SourceGraphic" in2="effect1_dropShadow_303_48" result="shape"/>
</filter>
</defs>
</svg>
